<svg width="2000" height="277" viewBox="0 0 2000 277" fill="none" xmlns="http://www.w3.org/2000/svg">
<g clip-path="url(#clip0_24_480)">
<path d="M2000 193.389C2000 208.673 1995.94 222.477 1987.8 234.803C1979.91 247.129 1968.45 256.866 1953.41 264.015C1938.37 271.164 1920.13 274.738 1898.69 274.738C1877.24 274.738 1858.75 271.164 1843.22 264.015C1827.94 256.619 1815.98 246.266 1807.35 232.954C1798.73 219.643 1793.8 204.236 1792.56 186.733H1833.98C1834.96 203.496 1840.76 216.931 1851.36 227.038C1862.2 237.145 1877.73 242.198 1897.95 242.198C1909.29 242.198 1919.39 240.473 1928.27 237.022C1937.14 233.571 1944.04 228.64 1948.97 222.231C1954.15 215.822 1956.74 208.057 1956.74 198.936C1956.74 187.842 1953.04 179.215 1945.65 173.052C1938.25 166.889 1926.91 162.205 1911.63 159.001L1873.17 151.605C1863.8 149.633 1854.81 146.921 1846.18 143.47C1837.8 140.019 1830.16 135.582 1823.25 130.159C1816.6 124.489 1811.3 117.586 1807.35 109.452C1803.66 101.07 1801.81 91.3329 1801.81 80.2398C1801.81 65.2026 1805.75 51.7676 1813.64 39.9351C1821.77 28.1025 1832.87 18.8582 1846.92 12.2024C1861.22 5.30005 1877.61 1.84888 1896.1 1.84888C1914.59 1.84888 1931.1 5.42331 1945.65 12.5722C1960.44 19.721 1972.27 29.7048 1981.14 42.5234C1990.27 55.3421 1995.32 70.6258 1996.31 88.3747H1954.89C1954.15 77.7747 1951.19 68.4072 1946.02 60.2723C1941.09 52.1374 1934.43 45.8513 1926.05 41.4141C1917.67 36.7304 1907.81 34.3885 1896.47 34.3885C1885.13 34.3885 1875.51 36.4839 1867.63 40.6746C1859.74 44.6188 1853.7 49.9188 1849.51 56.5746C1845.32 62.984 1843.22 70.0096 1843.22 77.6515C1843.22 86.0329 1845.32 92.8119 1849.51 97.9887C1853.94 102.919 1859.74 106.863 1866.89 109.821C1874.04 112.779 1881.68 115.121 1889.81 116.847L1929.01 124.612C1951.93 129.296 1969.44 136.938 1981.51 147.538C1993.84 158.138 2000 173.422 2000 193.389Z" fill="white"/>
<path d="M1759 194.868C1759 219.026 1750.74 237.761 1734.23 251.073C1717.96 264.385 1696.02 271.04 1668.41 271.04H1571.16V5.54657H1663.23C1690.1 5.54657 1711.05 11.5861 1726.09 23.6652C1741.37 35.4978 1749.02 52.6304 1749.02 75.0631C1749.02 87.6352 1745.44 98.9748 1738.29 109.082C1731.14 119.189 1721.16 127.077 1708.34 132.747C1724.86 137.431 1737.43 145.196 1746.06 156.042C1754.69 166.642 1759 179.584 1759 194.868ZM1660.64 38.0862H1608.5V117.956H1660.64C1676.67 117.956 1688.87 114.382 1697.25 107.233C1705.88 100.084 1710.19 90.3468 1710.19 78.0212C1710.19 65.6956 1705.88 55.9584 1697.25 48.8095C1688.87 41.6606 1676.67 38.0862 1660.64 38.0862ZM1665.82 150.496H1608.5V238.501H1665.82C1683.07 238.501 1696.39 234.557 1705.75 226.668C1715.37 218.78 1720.17 207.81 1720.17 193.759C1720.17 180.201 1715.37 169.601 1705.75 161.959C1696.39 154.317 1683.07 150.496 1665.82 150.496Z" fill="white"/>
<path d="M1394.13 276.587C1374.9 276.587 1357.03 273.136 1340.51 266.233C1324.24 259.084 1309.94 249.224 1297.62 236.652C1285.54 224.08 1276.05 209.412 1269.15 192.649C1262.49 175.64 1259.16 157.398 1259.16 137.924C1259.16 118.449 1262.49 100.331 1269.15 83.5677C1276.05 66.8048 1285.54 52.2606 1297.62 39.935C1309.94 27.3629 1324.24 17.6256 1340.51 10.7233C1357.03 3.57443 1374.9 0 1394.13 0C1413.36 0 1431.1 3.57443 1447.37 10.7233C1463.89 17.6256 1478.19 27.3629 1490.27 39.935C1502.59 52.2606 1512.08 66.8048 1518.74 83.5677C1525.64 100.331 1529.09 118.449 1529.09 137.924C1529.09 157.398 1525.64 175.64 1518.74 192.649C1512.08 209.412 1502.59 224.08 1490.27 236.652C1478.19 249.224 1463.89 259.084 1447.37 266.233C1431.1 273.136 1413.36 276.587 1394.13 276.587ZM1394.13 239.98C1408.18 239.98 1420.87 237.391 1432.21 232.215C1443.55 227.038 1453.29 219.766 1461.43 210.398C1469.81 201.031 1476.09 190.184 1480.28 177.859C1484.72 165.287 1486.94 151.975 1486.94 137.924C1486.94 123.872 1484.72 110.684 1480.28 98.3584C1476.09 86.0328 1469.81 75.3095 1461.43 66.1886C1453.29 56.8211 1443.55 49.549 1432.21 44.3722C1420.87 39.1955 1408.18 36.6071 1394.13 36.6071C1380.08 36.6071 1367.38 39.1955 1356.04 44.3722C1344.7 49.549 1334.84 56.8211 1326.46 66.1886C1318.33 75.3095 1312.04 86.0328 1307.6 98.3584C1303.41 110.684 1301.32 123.872 1301.32 137.924C1301.32 151.975 1303.41 165.287 1307.6 177.859C1312.04 190.184 1318.33 201.031 1326.46 210.398C1334.84 219.766 1344.7 227.038 1356.04 232.215C1367.38 237.391 1380.08 239.98 1394.13 239.98Z" fill="white"/>
<path d="M1229.98 194.868C1229.98 219.026 1221.73 237.761 1205.21 251.073C1188.94 264.385 1167 271.04 1139.39 271.04H1042.14V5.54657H1134.21C1161.08 5.54657 1182.04 11.5861 1197.08 23.6652C1212.36 35.4978 1220 52.6304 1220 75.0631C1220 87.6352 1216.43 98.9748 1209.28 109.082C1202.13 119.189 1192.15 127.077 1179.33 132.747C1195.84 137.431 1208.41 145.196 1217.04 156.042C1225.67 166.642 1229.98 179.584 1229.98 194.868ZM1131.63 38.0862H1079.49V117.956H1131.63C1147.65 117.956 1159.85 114.382 1168.23 107.233C1176.86 100.084 1181.18 90.3468 1181.18 78.0212C1181.18 65.6956 1176.86 55.9584 1168.23 48.8095C1159.85 41.6606 1147.65 38.0862 1131.63 38.0862ZM1136.8 150.496H1079.49V238.501H1136.8C1154.06 238.501 1167.37 234.557 1176.74 226.668C1186.35 218.78 1191.16 207.81 1191.16 193.759C1191.16 180.201 1186.35 169.601 1176.74 161.959C1167.37 154.317 1154.06 150.496 1136.8 150.496Z" fill="white"/>
<path d="M937.887 141.991H986.327C982.136 161.466 975.973 179.091 967.839 194.868C959.704 210.645 950.459 224.203 940.106 235.543C928.766 247.868 915.578 257.482 900.541 264.385C885.75 271.04 869.973 274.368 853.21 274.368C829.299 274.368 810.071 268.329 795.526 256.25C781.229 244.171 774.08 228.024 774.08 207.81C774.08 188.336 780.366 170.463 792.938 154.194C805.757 137.677 823.752 125.105 846.924 116.477L859.127 152.714C848.034 156.659 839.159 162.822 832.503 171.203C825.847 179.338 822.52 188.582 822.52 198.936C822.52 209.782 825.971 218.287 832.873 224.45C839.775 230.612 849.513 233.694 862.085 233.694C872.438 233.694 881.806 231.352 890.187 226.668C898.815 221.984 906.457 215.452 913.113 207.07C925.931 191.047 934.19 169.354 937.887 141.991ZM887.969 127.57L995.571 271.04H937.148L843.227 146.059C837.31 138.17 832.627 129.419 829.175 119.805C825.724 109.945 823.999 100.331 823.999 90.9632C823.999 76.4189 827.327 63.6003 833.982 52.5072C840.638 41.4142 850.006 32.7862 862.085 26.6234C874.164 20.4606 888.215 17.3792 904.238 17.3792C918.043 17.3792 930.122 20.3374 940.476 26.2536C951.076 31.9234 959.334 39.9351 965.25 50.2886C971.413 60.3956 974.494 72.2282 974.494 85.7864H927.164C927.164 76.9119 924.945 70.0096 920.508 65.0794C916.071 60.1491 910.155 57.684 902.759 57.684C894.131 57.684 887.352 60.6421 882.422 66.5584C877.492 72.2282 875.027 80.2399 875.027 90.5934C875.027 97.4957 876.136 104.028 878.355 110.191C880.573 116.107 883.778 121.9 887.969 127.57Z" fill="#8B14D0"/>
<path d="M747.699 193.389C747.699 208.673 743.631 222.477 735.496 234.803C727.608 247.129 716.145 256.866 701.108 264.015C686.071 271.164 667.829 274.738 646.382 274.738C624.936 274.738 606.447 271.164 590.917 264.015C575.633 256.619 563.677 246.266 555.049 232.954C546.421 219.643 541.491 204.236 540.259 186.733H581.673C582.659 203.496 588.452 216.931 599.052 227.038C609.898 237.145 625.429 242.198 645.643 242.198C656.982 242.198 667.089 240.473 675.964 237.022C684.838 233.571 691.74 228.64 696.671 222.231C701.847 215.822 704.436 208.057 704.436 198.936C704.436 187.842 700.738 179.215 693.343 173.052C685.947 166.889 674.608 162.205 659.324 159.001L620.868 151.605C611.501 149.633 602.503 146.921 593.875 143.47C585.494 140.019 577.852 135.582 570.949 130.159C564.293 124.489 558.993 117.586 555.049 109.452C551.352 101.07 549.503 91.3329 549.503 80.2398C549.503 65.2026 553.447 51.7676 561.335 39.9351C569.47 28.1025 580.563 18.8582 594.614 12.2024C608.912 5.30005 625.305 1.84888 643.794 1.84888C662.282 1.84888 678.799 5.42331 693.343 12.5722C708.133 19.721 719.966 29.7048 728.841 42.5234C737.961 55.3421 743.015 70.6258 744.001 88.3747H702.587C701.847 77.7747 698.889 68.4072 693.712 60.2723C688.782 52.1374 682.126 45.8513 673.745 41.4141C665.364 36.7304 655.503 34.3885 644.163 34.3885C632.824 34.3885 623.21 36.4839 615.322 40.6746C607.433 44.6188 601.394 49.9188 597.203 56.5746C593.012 62.984 590.917 70.0096 590.917 77.6515C590.917 86.0329 593.012 92.8119 597.203 97.9887C601.64 102.919 607.433 106.863 614.582 109.821C621.731 112.779 629.373 115.121 637.508 116.847L676.703 124.612C699.629 129.296 717.131 136.938 729.21 147.538C741.536 158.138 747.699 173.422 747.699 193.389Z" fill="white"/>
<path d="M438.32 271.04H397.646V42.1537H311.12V5.54657H524.846V42.1537H438.32V271.04Z" fill="white"/>
<path d="M275.391 271.04H234.716V5.54657H275.391V271.04Z" fill="white"/>
<path d="M187.842 194.868C187.842 219.026 179.584 237.761 163.068 251.073C146.798 264.385 124.858 271.04 97.2488 271.04H-0.000305176V5.54657H92.0721C118.942 5.54657 139.895 11.5861 154.933 23.6652C170.216 35.4978 177.858 52.6304 177.858 75.0631C177.858 87.6352 174.284 98.9748 167.135 109.082C159.986 119.189 150.002 127.077 137.184 132.747C153.7 137.431 166.272 145.196 174.9 156.042C183.528 166.642 187.842 179.584 187.842 194.868ZM89.4837 38.0862H37.3463V117.956H89.4837C105.507 117.956 117.709 114.382 126.091 107.233C134.719 100.084 139.033 90.3468 139.033 78.0212C139.033 65.6956 134.719 55.9584 126.091 48.8095C117.709 41.6606 105.507 38.0862 89.4837 38.0862ZM94.6604 150.496H37.3463V238.501H94.6604C111.916 238.501 125.228 234.557 134.595 226.668C144.209 218.78 149.016 207.81 149.016 193.759C149.016 180.201 144.209 169.601 134.595 161.959C125.228 154.317 111.916 150.496 94.6604 150.496Z" fill="white"/>
</g>
<defs>
<clipPath id="clip0_24_480">
<rect width="2000" height="277" fill="white"/>
</clipPath>
</defs>
</svg>
