<svg width="161" height="22" viewBox="0 0 161 22" fill="none" xmlns="http://www.w3.org/2000/svg">
<path d="M160.34 15.3924C160.34 16.608 160.012 17.7061 159.355 18.6865C158.719 19.6669 157.794 20.4414 156.58 21.01C155.367 21.5786 153.895 21.8629 152.164 21.8629C150.433 21.8629 148.941 21.5786 147.688 21.01C146.454 20.4218 145.49 19.5982 144.793 18.5394C144.097 17.4806 143.699 16.2551 143.6 14.8629H146.942C147.021 16.1963 147.489 17.2649 148.344 18.0688C149.22 18.8727 150.473 19.2747 152.104 19.2747C153.019 19.2747 153.835 19.1375 154.551 18.8629C155.267 18.5884 155.824 18.1963 156.222 17.6865C156.64 17.1767 156.849 16.559 156.849 15.8335C156.849 14.9512 156.55 14.2649 155.954 13.7747C155.357 13.2845 154.442 12.912 153.208 12.6571L150.105 12.0688C149.349 11.912 148.623 11.6963 147.927 11.4218C147.25 11.1473 146.633 10.7943 146.076 10.3629C145.539 9.91196 145.112 9.36294 144.793 8.71588C144.495 8.04921 144.346 7.2747 144.346 6.39235C144.346 5.19627 144.664 4.12765 145.301 3.18647C145.957 2.24529 146.852 1.51 147.986 0.980587C149.14 0.431568 150.463 0.157059 151.955 0.157059C153.447 0.157059 154.78 0.441372 155.954 1.01C157.147 1.57863 158.102 2.37275 158.818 3.39235C159.554 4.41196 159.962 5.62765 160.042 7.03941H156.7C156.64 6.19628 156.401 5.45118 155.983 4.80412C155.586 4.15706 155.048 3.65706 154.372 3.30412C153.696 2.93157 152.9 2.74529 151.985 2.74529C151.07 2.74529 150.294 2.91196 149.657 3.24529C149.021 3.55902 148.533 3.98059 148.195 4.51C147.857 5.0198 147.688 5.57863 147.688 6.18647C147.688 6.85314 147.857 7.39235 148.195 7.80412C148.553 8.19627 149.021 8.51 149.598 8.74529C150.174 8.98059 150.791 9.16686 151.448 9.30412L154.611 9.92176C156.461 10.2943 157.873 10.9022 158.848 11.7453C159.843 12.5884 160.34 13.8041 160.34 15.3924Z" fill="black"/>
<path d="M140.891 15.51C140.891 17.4316 140.225 18.9218 138.892 19.9806C137.579 21.0394 135.808 21.5688 133.58 21.5688H125.732V0.451172H133.163C135.331 0.451172 137.022 0.931565 138.235 1.89235C139.469 2.83353 140.086 4.19627 140.086 5.98058C140.086 6.98058 139.797 7.88254 139.22 8.68647C138.643 9.49039 137.838 10.1178 136.803 10.5688C138.136 10.9414 139.151 11.559 139.847 12.4218C140.543 13.2649 140.891 14.2943 140.891 15.51ZM132.954 3.03941H128.746V9.39235H132.954C134.247 9.39235 135.232 9.10803 135.908 8.53941C136.604 7.97078 136.952 7.19627 136.952 6.21588C136.952 5.23549 136.604 4.46098 135.908 3.89235C135.232 3.32372 134.247 3.03941 132.954 3.03941ZM133.371 11.9806H128.746V18.9806H133.371C134.764 18.9806 135.838 18.6669 136.594 18.0394C137.37 17.412 137.758 16.5394 137.758 15.4218C137.758 14.3433 137.37 13.5002 136.594 12.8923C135.838 12.2845 134.764 11.9806 133.371 11.9806Z" fill="black"/>
<path d="M111.446 22.01C109.895 22.01 108.452 21.7355 107.12 21.1865C105.807 20.6178 104.653 19.8335 103.658 18.8335C102.683 17.8335 101.917 16.6669 101.36 15.3335C100.823 13.9806 100.555 12.5296 100.555 10.9806C100.555 9.43156 100.823 7.99039 101.36 6.65705C101.917 5.32372 102.683 4.16686 103.658 3.18647C104.653 2.18647 105.807 1.41195 107.12 0.862935C108.452 0.294308 109.895 0.00999451 111.446 0.00999451C112.998 0.00999451 114.43 0.294308 115.743 0.862935C117.076 1.41195 118.23 2.18647 119.205 3.18647C120.199 4.16686 120.965 5.32372 121.502 6.65705C122.059 7.99039 122.338 9.43156 122.338 10.9806C122.338 12.5296 122.059 13.9806 121.502 15.3335C120.965 16.6669 120.199 17.8335 119.205 18.8335C118.23 19.8335 117.076 20.6178 115.743 21.1865C114.43 21.7355 112.998 22.01 111.446 22.01ZM111.446 19.0982C112.58 19.0982 113.605 18.8923 114.52 18.4806C115.435 18.0688 116.221 17.4904 116.877 16.7453C117.554 16.0002 118.061 15.1374 118.399 14.1571C118.757 13.1571 118.936 12.0982 118.936 10.9806C118.936 9.86293 118.757 8.81392 118.399 7.83352C118.061 6.85313 117.554 6.00019 116.877 5.2747C116.221 4.5296 115.435 3.95117 114.52 3.53941C113.605 3.12764 112.58 2.92176 111.446 2.92176C110.312 2.92176 109.288 3.12764 108.373 3.53941C107.458 3.95117 106.662 4.5296 105.986 5.2747C105.329 6.00019 104.822 6.85313 104.464 7.83352C104.126 8.81392 103.956 9.86293 103.956 10.9806C103.956 12.0982 104.126 13.1571 104.464 14.1571C104.822 15.1374 105.329 16.0002 105.986 16.7453C106.662 17.4904 107.458 18.0688 108.373 18.4806C109.288 18.8923 110.312 19.0982 111.446 19.0982Z" fill="black"/>
<path d="M98.2 15.51C98.2 17.4316 97.5336 18.9218 96.2007 19.9806C94.8878 21.0394 93.1173 21.5688 90.8892 21.5688H83.0413V0.451172H90.4714C92.6398 0.451172 94.3308 0.931565 95.5443 1.89235C96.7777 2.83353 97.3944 4.19627 97.3944 5.98058C97.3944 6.98058 97.1059 7.88254 96.529 8.68647C95.9521 9.49039 95.1464 10.1178 94.1119 10.5688C95.4448 10.9414 96.4594 11.559 97.1556 12.4218C97.8519 13.2649 98.2 14.2943 98.2 15.51ZM90.2626 3.03941H86.0551V9.39235H90.2626C91.5556 9.39235 92.5404 9.10803 93.2167 8.53941C93.913 7.97078 94.2611 7.19627 94.2611 6.21588C94.2611 5.23549 93.913 4.46098 93.2167 3.89235C92.5404 3.32372 91.5556 3.03941 90.2626 3.03941ZM90.6803 11.9806H86.0551V18.9806H90.6803C92.0729 18.9806 93.1471 18.6669 93.9031 18.0394C94.6789 17.412 95.0668 16.5394 95.0668 15.4218C95.0668 14.3433 94.6789 13.5002 93.9031 12.8923C93.1471 12.2845 92.0729 11.9806 90.6803 11.9806Z" fill="black"/>
<path d="M76.1461 11.8335H79.0108C78.6726 13.3237 78.1952 14.6669 77.5785 15.8629C76.9817 17.059 76.2854 18.0786 75.4897 18.9218C74.6143 19.8629 73.6097 20.5884 72.4758 21.0982C71.3618 21.608 70.1582 21.8629 68.8652 21.8629C67.035 21.8629 65.5628 21.3923 64.4488 20.4512C63.3547 19.4904 62.8076 18.2159 62.8076 16.6276C62.8076 15.1178 63.305 13.7453 64.2996 12.51C65.3142 11.2551 66.7565 10.2943 68.6264 9.62764L69.4023 11.7159C68.2286 12.1276 67.3135 12.7257 66.657 13.51C66.0204 14.2943 65.7021 15.1767 65.7021 16.1571C65.7021 17.1963 66.0204 18.01 66.657 18.5982C67.3135 19.1865 68.2087 19.4806 69.3426 19.4806C70.2577 19.4806 71.0932 19.2943 71.8492 18.9218C72.6051 18.5296 73.2815 17.9708 73.8783 17.2453C74.9724 15.9512 75.7284 14.1473 76.1461 11.8335ZM71.0733 10.3335L79.0108 21.5688H75.6389L68.3579 11.2747C67.9202 10.6473 67.5621 9.95117 67.2836 9.18647C67.025 8.40215 66.8957 7.66686 66.8957 6.98058C66.8957 5.86294 67.1444 4.88255 67.6417 4.03941C68.139 3.19627 68.8353 2.54921 69.7305 2.09823C70.6257 1.62764 71.6701 1.39235 72.8637 1.39235C73.8982 1.39235 74.8133 1.60804 75.609 2.03941C76.4047 2.47078 77.0214 3.06882 77.4591 3.83353C77.9166 4.59823 78.1454 5.49039 78.1454 6.51H75.3405C75.3405 5.66686 75.1117 5.00019 74.6541 4.51C74.1966 4.00019 73.5799 3.74529 72.804 3.74529C71.9088 3.74529 71.2026 4.02961 70.6854 4.59823C70.1682 5.16686 69.9096 5.95117 69.9096 6.95117C69.9096 7.53941 70.009 8.11784 70.208 8.68647C70.4069 9.23549 70.6953 9.78451 71.0733 10.3335Z" fill="#8B14D0"/>
<path d="M60.6788 15.3924C60.6788 16.608 60.3505 17.7061 59.694 18.6865C59.0575 19.6669 58.1324 20.4414 56.9189 21.01C55.7054 21.5786 54.2333 21.8629 52.5026 21.8629C50.7719 21.8629 49.2799 21.5786 48.0266 21.01C46.7932 20.4218 45.8283 19.5982 45.1321 18.5394C44.4358 17.4806 44.0379 16.2551 43.9385 14.8629H47.2806C47.3601 16.1963 47.8276 17.2649 48.6831 18.0688C49.5584 18.8727 50.8116 19.2747 52.4429 19.2747C53.358 19.2747 54.1736 19.1375 54.8898 18.8629C55.606 18.5884 56.163 18.1963 56.5608 17.6865C56.9786 17.1767 57.1875 16.559 57.1875 15.8335C57.1875 14.9512 56.8891 14.2649 56.2923 13.7747C55.6955 13.2845 54.7804 12.912 53.547 12.6571L50.4436 12.0688C49.6877 11.912 48.9616 11.6963 48.2653 11.4218C47.5889 11.1473 46.9722 10.7943 46.4152 10.3629C45.8781 9.91196 45.4504 9.36294 45.1321 8.71588C44.8337 8.04921 44.6845 7.2747 44.6845 6.39235C44.6845 5.19627 45.0028 4.12765 45.6394 3.18647C46.2958 2.24529 47.191 1.51 48.325 0.980587C49.4788 0.431568 50.8017 0.157059 52.2937 0.157059C53.7857 0.157059 55.1186 0.441372 56.2923 1.01C57.4859 1.57863 58.4408 2.37275 59.1569 3.39235C59.893 4.41196 60.3008 5.62765 60.3804 7.03941H57.0383C56.9786 6.19628 56.7399 5.45118 56.3221 4.80412C55.9242 4.15706 55.3871 3.65706 54.7108 3.30412C54.0344 2.93157 53.2386 2.74529 52.3235 2.74529C51.4084 2.74529 50.6326 2.91196 49.996 3.24529C49.3594 3.55902 48.872 3.98059 48.5339 4.51C48.1957 5.0198 48.0266 5.57863 48.0266 6.18647C48.0266 6.85314 48.1957 7.39235 48.5339 7.80412C48.8919 8.19627 49.3594 8.51 49.9363 8.74529C50.5132 8.98059 51.1299 9.16686 51.7864 9.30412L54.9495 9.92176C56.7996 10.2943 58.212 10.9022 59.1868 11.7453C60.1814 12.5884 60.6788 13.8041 60.6788 15.3924Z" fill="black"/>
<path d="M35.7121 21.5688H32.4297V3.36294H25.4471V0.451172H42.6947V3.36294H35.7121V21.5688Z" fill="black"/>
<path d="M22.5638 21.5688H19.2814V0.451172H22.5638V21.5688Z" fill="black"/>
<path d="M15.4987 15.51C15.4987 17.4316 14.8323 18.9218 13.4994 19.9806C12.1865 21.0394 10.416 21.5688 8.18791 21.5688H0.339966V0.451172H7.77015C9.93853 0.451172 11.6295 0.931565 12.843 1.89235C14.0764 2.83353 14.693 4.19627 14.693 5.98058C14.693 6.98058 14.4046 7.88254 13.8277 8.68647C13.2508 9.49039 12.4451 10.1178 11.4106 10.5688C12.7435 10.9414 13.7581 11.559 14.4543 12.4218C15.1506 13.2649 15.4987 14.2943 15.4987 15.51ZM7.56127 3.03941H3.35382V9.39235H7.56127C8.85434 9.39235 9.83906 9.10803 10.5154 8.53941C11.2117 7.97078 11.5598 7.19627 11.5598 6.21588C11.5598 5.23549 11.2117 4.46098 10.5154 3.89235C9.83906 3.32372 8.85434 3.03941 7.56127 3.03941ZM7.97903 11.9806H3.35382V18.9806H7.97903C9.37157 18.9806 10.4458 18.6669 11.2018 18.0394C11.9776 17.412 12.3655 16.5394 12.3655 15.4218C12.3655 14.3433 11.9776 13.5002 11.2018 12.8923C10.4458 12.2845 9.37157 11.9806 7.97903 11.9806Z" fill="black"/>
</svg>
